<svg width="35" height="34" viewBox="0 0 35 34" fill="none" xmlns="http://www.w3.org/2000/svg">
<path d="M10.0836 2.83325L23.542 2.83325L29.917 9.20825V26.9166" stroke="#5EACCA" stroke-width="1.5" stroke-linecap="round" stroke-linejoin="round"/>
<path d="M4.41699 29.6666V8.58325C4.41699 7.75482 5.08857 7.08325 5.91699 7.08325H20.4601C20.6193 7.08325 20.7719 7.14647 20.8844 7.25899L25.4913 11.8658C25.6038 11.9784 25.667 12.131 25.667 12.2901V29.6666C25.667 30.495 24.9954 31.1666 24.167 31.1666H5.91699C5.08857 31.1666 4.41699 30.495 4.41699 29.6666Z" stroke="#5EACCA" stroke-width="1.5" stroke-linecap="round" stroke-linejoin="round"/>
<path d="M20.0004 12.1499V7.58412C20.0004 7.3075 20.2246 7.08325 20.5012 7.08325C20.6341 7.08325 20.7615 7.13602 20.8554 7.22995L25.5203 11.8949C25.6143 11.9888 25.667 12.1162 25.667 12.2491C25.667 12.5257 25.4428 12.7499 25.1662 12.7499H20.6004C20.269 12.7499 20.0004 12.4813 20.0004 12.1499Z" fill="#5EACCA" stroke="#5EACCA" stroke-width="1.5" stroke-linecap="round" stroke-linejoin="round"/>
</svg>
