<svg width="51" height="50" viewBox="0 0 51 50" fill="none" xmlns="http://www.w3.org/2000/svg">
<path d="M23.8337 13.1666L23.1266 12.4595C23.3141 12.2719 23.5685 12.1666 23.8337 12.1666C24.0989 12.1666 24.3533 12.2719 24.5408 12.4595L23.8337 13.1666ZM7.87415 30.5404C7.48362 30.9309 6.85046 30.9309 6.45993 30.5404C6.06941 30.1498 6.06941 29.5167 6.45993 29.1261L7.87415 30.5404ZM30.0837 19.4166L30.7908 20.1237C30.6033 20.3112 30.3489 20.4166 30.0837 20.4166C29.8185 20.4166 29.5641 20.3112 29.3766 20.1237L30.0837 19.4166ZM40.5004 7.99992C41.0527 7.99992 41.5004 8.44764 41.5004 8.99992L41.5004 17.9999C41.5004 18.5522 41.0527 18.9999 40.5004 18.9999C39.9481 18.9999 39.5004 18.5522 39.5004 17.9999L39.5004 9.99992L31.5004 9.99992C30.9481 9.99992 30.5004 9.55221 30.5004 8.99992C30.5004 8.44764 30.9481 7.99992 31.5004 7.99992L40.5004 7.99992ZM24.5408 13.8737L7.87415 30.5404L6.45993 29.1261L23.1266 12.4595L24.5408 13.8737ZM24.5408 12.4595L30.7908 18.7095L29.3766 20.1237L23.1266 13.8737L24.5408 12.4595ZM29.3766 18.7095L39.7933 8.29281L41.2075 9.70703L30.7908 20.1237L29.3766 18.7095Z" fill="#E42313"/>
<path d="M37.4515 29.5C35.9391 27.9572 33.8315 27 31.5003 27C26.898 27 23.167 30.731 23.167 35.3333C23.167 37.6045 24.0756 39.6635 25.5491 41.1667M37.4515 29.5C38.9251 31.0031 39.8337 33.0621 39.8337 35.3333C39.8337 39.9357 36.1027 43.6667 31.5003 43.6667C29.1692 43.6667 27.0616 42.7095 25.5491 41.1667M37.4515 29.5L25.5491 41.1667" stroke="#E42313" stroke-width="2" stroke-linecap="round" stroke-linejoin="round"/>
</svg>
