<svg width="42" height="42" viewBox="0 0 42 42" fill="none" xmlns="http://www.w3.org/2000/svg">
<path d="M28.875 8.75H36.15C36.4814 8.75 36.75 9.01863 36.75 9.35V36.15C36.75 36.4814 36.4814 36.75 36.15 36.75H5.85C5.51863 36.75 5.25 36.4814 5.25 36.15V9.35C5.25 9.01863 5.51863 8.75 5.85 8.75H13.125" stroke="#EEAB00" stroke-width="1.5" stroke-linecap="round" stroke-linejoin="round"/>
<path d="M28.2785 12.3288L28.8586 8.84864C28.8694 8.78333 28.8694 8.71667 28.8586 8.65136L28.2785 5.1712C28.1178 4.20683 27.2834 3.5 26.3057 3.5H15.6943C14.7166 3.5 13.8822 4.20683 13.7215 5.1712L13.1414 8.65136C13.1306 8.71667 13.1306 8.78333 13.1414 8.84864L13.7215 12.3288C13.8822 13.2932 14.7166 14 15.6943 14H26.3057C27.2834 14 28.1178 13.2932 28.2785 12.3288Z" stroke="#EEAB00" stroke-width="1.5" stroke-linecap="round" stroke-linejoin="round"/>
<path d="M21 14L19.25 9.625" stroke="#EEAB00" stroke-width="1.5" stroke-linecap="round" stroke-linejoin="round"/>
<path d="M12.25 29.75L29.75 29.75" stroke="#EEAB00" stroke-width="1.5" stroke-linecap="round" stroke-linejoin="round"/>
</svg>
