<svg width="31" height="30" viewBox="0 0 31 30" fill="none" xmlns="http://www.w3.org/2000/svg">
<path d="M24.542 27.5C25.5775 27.5 26.417 26.6605 26.417 25.625C26.417 24.5895 25.5775 23.75 24.542 23.75C23.5065 23.75 22.667 24.5895 22.667 25.625C22.667 26.6605 23.5065 27.5 24.542 27.5Z" fill="#E42313" stroke="#E42313" stroke-width="1.5" stroke-linecap="round" stroke-linejoin="round"/>
<path d="M12.042 27.5C13.0775 27.5 13.917 26.6605 13.917 25.625C13.917 24.5895 13.0775 23.75 12.042 23.75C11.0065 23.75 10.167 24.5895 10.167 25.625C10.167 26.6605 11.0065 27.5 12.042 27.5Z" fill="#E42313" stroke="#E42313" stroke-width="1.5" stroke-linecap="round" stroke-linejoin="round"/>
<path d="M6.41699 5H27.667L25.167 18.75H8.91699L6.41699 5ZM6.41699 5C6.20866 4.16667 5.16699 2.5 2.66699 2.5" stroke="#E42313" stroke-width="1.5" stroke-linecap="round" stroke-linejoin="round"/>
<path d="M25.167 18.75H8.91699H6.70545C4.47507 18.75 3.29199 19.7266 3.29199 21.25C3.29199 22.7734 4.47507 23.75 6.70545 23.75H24.542" stroke="#E42313" stroke-width="1.5" stroke-linecap="round" stroke-linejoin="round"/>
</svg>
