<svg width="50" height="50" viewBox="0 0 50 50" fill="none" xmlns="http://www.w3.org/2000/svg">
<path d="M5.84386 14.4553L24.5939 22.7886L25.4061 20.961L6.65614 12.6277L5.84386 14.4553ZM26 44.7915V21.8748H24V44.7915H26ZM25.4061 22.7886L44.1561 14.4553L43.3439 12.6277L24.5939 20.961L25.4061 22.7886Z" fill="#E42313"/>
<path d="M6.25 36.0686V13.9318C6.25 13.6946 6.38964 13.4798 6.60632 13.3835L24.7563 5.3168C24.9115 5.24785 25.0885 5.24785 25.2437 5.3168L43.3937 13.3835C43.6104 13.4798 43.75 13.6946 43.75 13.9318V36.0686C43.75 36.3057 43.6104 36.5206 43.3937 36.6169L25.2437 44.6835C25.0885 44.7525 24.9115 44.7525 24.7563 44.6835L6.60632 36.6169C6.38964 36.5206 6.25 36.3057 6.25 36.0686Z" stroke="#E42313" stroke-width="2" stroke-linecap="round" stroke-linejoin="round"/>
<path d="M15.625 9.375L34.0187 17.55C34.2354 17.6463 34.375 17.8611 34.375 18.0983V26.0417" stroke="#E42313" stroke-width="2" stroke-linecap="round" stroke-linejoin="round"/>
</svg>
