<svg width="51" height="50" viewBox="0 0 51 50" fill="none" xmlns="http://www.w3.org/2000/svg">
<path d="M6.16699 46.9556V40.9556C6.16699 35.4327 10.6441 30.9556 16.167 30.9556H19.667H23.167C28.6898 30.9556 33.167 35.4327 33.167 40.9556V46.9556" stroke="#E42313" stroke-width="2" stroke-linecap="round" stroke-linejoin="round"/>
<path d="M19.667 30.9556C23.8091 30.9556 27.167 27.5977 27.167 23.4556C27.167 19.3134 23.8091 15.9556 19.667 15.9556C15.5249 15.9556 12.167 19.3134 12.167 23.4556C12.167 27.5977 15.5249 30.9556 19.667 30.9556Z" stroke="#E42313" stroke-width="2" stroke-linecap="round" stroke-linejoin="round"/>
<path d="M32 10L32 16L37 16" stroke="#E42313" stroke-width="2" stroke-linecap="round" stroke-linejoin="round"/>
<path fill-rule="evenodd" clip-rule="evenodd" d="M25.3159 10.1181C26.9715 7.63547 29.7974 6 33.0053 6C38.1061 6 42.2412 10.135 42.2412 15.2358C42.2412 19.6331 39.1681 23.3126 35.0525 24.244V26.2856C40.2804 25.3232 44.2412 20.7421 44.2412 15.2358C44.2412 9.03046 39.2107 4 33.0053 4C28.6432 4 24.8617 6.48578 23 10.1181H25.3159Z" fill="#E42313"/>
</svg>
