<svg width="31" height="30" viewBox="0 0 31 30" fill="none" xmlns="http://www.w3.org/2000/svg">
<path d="M3.91699 11.25V24.25C3.91699 25.3546 4.81242 26.25 5.91699 26.25H24.417C25.5216 26.25 26.417 25.3546 26.417 24.25V11.25" stroke="#85929A" stroke-width="1.5"/>
<path d="M25.9003 3.75H20.7836L21.4086 10C21.4086 10 22.6586 11.25 24.5336 11.25C25.9389 11.25 26.8761 10.5478 27.2574 10.196C27.3858 10.0776 27.4337 9.90091 27.405 9.72861L26.4921 4.25136C26.4439 3.96205 26.1936 3.75 25.9003 3.75Z" stroke="#85929A" stroke-width="1.5"/>
<path d="M20.7836 3.75L21.4086 10C21.4086 10 20.1586 11.25 18.2836 11.25C16.4086 11.25 15.1586 10 15.1586 10V3.75H20.7836Z" stroke="#85929A" stroke-width="1.5"/>
<path d="M15.1586 3.75V10C15.1586 10 13.9086 11.25 12.0336 11.25C10.1586 11.25 8.90857 10 8.90857 10L9.53357 3.75H15.1586Z" stroke="#85929A" stroke-width="1.5"/>
<path d="M9.53361 3.75H4.41689C4.12358 3.75 3.87327 3.96205 3.82505 4.25136L2.91217 9.72862C2.88346 9.90091 2.93136 10.0776 3.05975 10.196C3.44108 10.5478 4.37826 11.25 5.78358 11.25C7.65858 11.25 8.90861 10 8.90861 10L9.53361 3.75Z" stroke="#85929A" stroke-width="1.5"/>
</svg>
