<svg width="51" height="50" viewBox="0 0 51 50" fill="none" xmlns="http://www.w3.org/2000/svg">
<path d="M4.33362 32.2917V6.16675C4.33362 5.06218 5.22905 4.16675 6.33362 4.16675H44.0003C45.1049 4.16675 46.0003 5.06218 46.0003 6.16675V32.2917M4.33362 32.2917V35.5001C4.33362 36.6047 5.22905 37.5001 6.33362 37.5001H44.0003C45.1049 37.5001 46.0003 36.6047 46.0003 35.5001V32.2917M4.33362 32.2917H46.0003M18.917 45.8334H22.042M22.042 45.8334V37.5001M22.042 45.8334H28.292M28.292 45.8334H31.417M28.292 45.8334L28.292 37.5001" stroke="#E42313" stroke-width="2" stroke-linecap="round" stroke-linejoin="round"/>
<path d="M32.167 14.6667C30.9563 11.9197 28.1913 10 24.974 10C20.9057 10 17.5606 13.0696 17.167 17" stroke="#E42313" stroke-width="2" stroke-linecap="round" stroke-linejoin="round"/>
<path d="M29.167 15H32.567C32.8984 15 33.167 14.7314 33.167 14.4V11" stroke="#E42313" stroke-width="2" stroke-linecap="round" stroke-linejoin="round"/>
<path d="M18.167 21.3333C19.3777 24.0803 22.1427 26 25.3599 26C29.4283 26 32.7733 22.9304 33.167 19" stroke="#E42313" stroke-width="2" stroke-linecap="round" stroke-linejoin="round"/>
<path d="M21.167 21H17.767C17.4356 21 17.167 21.2686 17.167 21.6V25" stroke="#E42313" stroke-width="2" stroke-linecap="round" stroke-linejoin="round"/>
</svg>
