<svg width="31" height="30" viewBox="0 0 31 30" fill="none" xmlns="http://www.w3.org/2000/svg">
<path d="M5.16699 7.5V15C5.16699 15 5.16699 18.75 13.917 18.75C22.667 18.75 22.667 15 22.667 15V7.5" stroke="#85929A" stroke-width="1.5" stroke-linecap="round" stroke-linejoin="round"/>
<path d="M13.917 3.75C22.667 3.75 22.667 7.5 22.667 7.5C22.667 7.5 22.667 11.25 13.917 11.25C5.16699 11.25 5.16699 7.5 5.16699 7.5C5.16699 7.5 5.16699 3.75 13.917 3.75Z" stroke="#85929A" stroke-width="1.5" stroke-linecap="round" stroke-linejoin="round"/>
<path d="M13.917 26.25C5.16699 26.25 5.16699 22.5 5.16699 22.5V15" stroke="#85929A" stroke-width="1.5" stroke-linecap="round" stroke-linejoin="round"/>
<path d="M23.917 27.5V20M23.917 20L27.667 23.75M23.917 20L20.167 23.75" stroke="#85929A" stroke-width="1.5" stroke-linecap="round" stroke-linejoin="round"/>
</svg>
