<svg width="31" height="30" viewBox="0 0 31 30" fill="none" xmlns="http://www.w3.org/2000/svg">
<path d="M11.417 26.25H18.917M11.417 26.25V20M11.417 26.25H4.51699C4.18562 26.25 3.91699 25.9814 3.91699 25.65V20.6C3.91699 20.2686 4.18562 20 4.51699 20H11.417M18.917 26.25V11.25M18.917 26.25H25.817C26.1484 26.25 26.417 25.9814 26.417 25.65V4.35C26.417 4.01863 26.1484 3.75 25.817 3.75H19.517C19.1856 3.75 18.917 4.01863 18.917 4.35V11.25M18.917 11.25H12.017C11.6856 11.25 11.417 11.5186 11.417 11.85V20" stroke="#85929A" stroke-width="1.5"/>
</svg>
