<svg width="97" height="56" viewBox="0 0 97 56" fill="none" xmlns="http://www.w3.org/2000/svg">
<path d="M73.9152 51.0932C73.9152 52.4999 72.7633 53.6399 71.342 53.6399H64.2556C62.8343 53.6399 61.6824 52.4932 61.6824 51.0932V39.5132H59.7828V51.0865C59.7828 53.5265 61.7902 55.5132 64.2556 55.5132H71.342C73.8074 55.5132 75.8148 53.5265 75.8148 51.0865V39.5132H73.9152V51.0932ZM49.9144 39.5198H46.4251C42.7741 39.5198 39.8035 42.4599 39.8035 46.0732V48.9732C39.8035 52.5865 42.7741 55.5265 46.4251 55.5265H49.9144C53.5654 55.5265 56.536 52.5865 56.536 48.9732V46.0665C56.536 42.4532 53.5654 39.5198 49.9144 39.5198ZM54.6364 48.9665C54.6364 51.5398 52.5213 53.6399 49.9144 53.6399H46.4251C43.825 53.6399 41.7031 51.5465 41.7031 48.9665V46.0665C41.7031 43.4932 43.8182 41.3932 46.4251 41.3932H49.9144C52.5145 41.3932 54.6364 43.4865 54.6364 46.0665V48.9665ZM36.907 46.4599V43.8932C36.907 41.4798 34.9198 39.5132 32.4813 39.5132H20.9559V55.5199H22.8554V50.8399H30.9388L35.6675 55.5199L38.335 55.5132L33.4918 50.7132C35.452 50.2599 36.907 48.5332 36.907 46.4599ZM22.8554 48.9599V41.3998H32.4813C33.8757 41.3998 35.0074 42.5198 35.0074 43.8998V46.4665C35.0074 47.8465 33.8757 48.9665 32.4813 48.9665H22.8554V48.9599ZM7.84065 48.5732H15.6411V53.6465H8.48732C5.88718 53.6465 3.76531 51.5532 3.76531 48.9732V46.0665C3.76531 43.4932 5.88044 41.3932 8.48732 41.3932H16.1395V39.5132H8.48732C4.83635 39.5132 1.86572 42.4532 1.86572 46.0665V48.9665C1.86572 52.5798 4.83635 55.5199 8.48732 55.5199H17.5407V46.6932H7.84065V48.5732ZM90.7083 39.5198H79.1828V55.5199H81.0824V50.8399H90.7083C93.1468 50.8399 95.1339 48.8732 95.1339 46.4599V43.8932C95.1339 41.4798 93.1468 39.5198 90.7083 39.5198ZM93.2343 46.4599C93.2343 47.8399 92.1027 48.9599 90.7083 48.9599H81.0824V41.3998H90.7083C92.1027 41.3998 93.2343 42.5198 93.2343 43.8998V46.4599Z" fill="white"/>
<path d="M89.9741 33.7802H73.4841V29.5335H89.9741C91.0654 29.5335 91.9478 28.6535 91.9478 27.5802C91.9478 26.5002 91.0654 25.6269 89.9741 25.6269L79.1425 25.6535C75.8957 25.6535 73.2618 23.0469 73.2618 19.8402C73.2618 16.6335 75.8957 14.0269 79.1357 14.0269H94.1775V18.2735H79.1357C78.26 18.2735 77.546 18.9802 77.546 19.8402C77.546 20.7069 78.26 21.4069 79.1357 21.4069L89.9674 21.3869C93.423 21.3869 96.232 24.1669 96.232 27.5869C96.2387 31.0002 93.4298 33.7802 89.9741 33.7802Z" fill="white"/>
<path d="M66.7683 14.0269V28.3335C66.7683 29.0002 66.2227 29.5402 65.549 29.5402H56.0579C55.3843 29.5402 54.8386 29.0002 54.8386 28.3335V14.0269H50.5477V28.3335C50.5477 31.3402 53.0199 33.7802 56.0511 33.7802H65.5423C68.5803 33.7802 71.0457 31.3335 71.0457 28.3335V14.0269H66.7683Z" fill="white"/>
<path d="M6.97853 25.5267L19.6828 25.5467V29.72H6.97853C5.80645 29.72 4.85665 28.78 4.85665 27.62C4.86339 26.4667 5.80645 25.5267 6.97853 25.5267ZM6.97853 33.78H23.7784V19.7867C23.7784 16.6067 21.1648 14.02 17.9517 14.02H2.84929V18.0734H17.9517C18.9014 18.0734 19.6828 18.84 19.6828 19.7867V21.4934H19.5616L6.98527 21.4734C3.55658 21.4734 0.767834 24.2334 0.767834 27.6267C0.761098 31.02 3.54985 33.78 6.97853 33.78Z" fill="white"/>
<path d="M35.4252 18.9334L31.1814 14.02H25.2941L32.4748 22.3334L35.4252 18.9334ZM38.3486 29.1334L42.3634 33.7867H48.2507L41.2991 25.7334L38.3486 29.1334ZM42.808 14.0267L25.6443 33.7734H31.5317L48.7021 14.0267H42.808Z" fill="white"/>
<path fill-rule="evenodd" clip-rule="evenodd" d="M42.8753 1.6134C44.3977 3.12006 44.3977 5.56006 42.8753 7.06673C41.3529 8.5734 38.8875 8.5734 37.3652 7.06673C35.8428 5.56006 35.8428 3.12006 37.3652 1.6134C38.8875 0.106732 41.3529 0.106732 42.8753 1.6134Z" fill="#E42313"/>
<path fill-rule="evenodd" clip-rule="evenodd" d="M9.36309 1.6134C10.8855 3.12006 10.8855 5.56006 9.36309 7.06673C7.84073 8.5734 5.37531 8.5734 3.85295 7.06673C2.33059 5.56006 2.33059 3.12006 3.85295 1.6134C5.36858 0.106732 7.84073 0.106732 9.36309 1.6134Z" fill="#E42313"/>
<path fill-rule="evenodd" clip-rule="evenodd" d="M93.1536 1.6134C94.676 3.12006 94.676 5.56006 93.1536 7.06673C91.6312 8.5734 89.1658 8.5734 87.6435 7.06673C86.1211 5.56006 86.1211 3.12006 87.6435 1.6134C89.1591 0.106732 91.6312 0.106732 93.1536 1.6134Z" fill="#E42313"/>
<path fill-rule="evenodd" clip-rule="evenodd" d="M59.6347 1.6134C61.1571 3.12006 61.1571 5.56006 59.6347 7.06673C58.1123 8.5734 55.6469 8.5734 54.1246 7.06673C52.6022 5.56006 52.6022 3.12006 54.1246 1.6134C55.6469 0.106732 58.1123 0.106732 59.6347 1.6134Z" fill="#E42313"/>
<path fill-rule="evenodd" clip-rule="evenodd" d="M26.1158 1.6134C27.6381 3.12006 27.6381 5.56006 26.1158 7.06673C24.5934 8.5734 22.128 8.5734 20.6056 7.06673C19.0833 5.56006 19.0833 3.12006 20.6056 1.6134C22.128 0.106732 24.5934 0.106732 26.1158 1.6134Z" fill="#E42313"/>
<path fill-rule="evenodd" clip-rule="evenodd" d="M76.3941 1.6134C77.9165 3.12006 77.9165 5.56006 76.3941 7.06673C74.8717 8.5734 72.4063 8.5734 70.884 7.06673C69.3616 5.56006 69.3616 3.12006 70.884 1.6134C72.4063 0.106732 74.8717 0.106732 76.3941 1.6134Z" fill="#E42313"/>
</svg>
